<svg width="142" height="34" viewBox="0 0 142 34" fill="none" xmlns="http://www.w3.org/2000/svg">
<path d="M0 15.75V0H4.5V6.75H6.75V4.5H9V2.25H11.25V0H15.75V2.25H13.5V4.5H11.25V6.75H9V9H11.25V11.25H13.5V13.5H15.75V15.75H9V13.5H6.75V11.25H4.5V15.75H0ZM20.25 15.75V13.5H18V0H22.5V13.5H29.25V0H33.75V13.5H31.5V15.75H20.25ZM36 15.75V0H49.5V2.25H51.75V9H47.25V11.25H49.5V13.5H51.75V15.75H45V13.5H42.75V11.25H40.5V15.75H36ZM40.5 9H45V6.75H47.25V2.25H40.5V9ZM54 15.75V0H58.5V2.25H60.75V4.5H63V2.25H65.25V0H69.75V15.75H65.25V6.75H63V11.25H60.75V6.75H58.5V15.75H54ZM72 15.75V0H87.75V2.25H76.5V6.75H85.5V9H76.5V13.5H87.75V15.75H72ZM96.75 15.75V2.25H92.25V0H105.75V2.25H101.25V15.75H96.75ZM0 33.75V18H13.5V20.25H15.75V27H11.25V29.25H13.5V31.5H15.75V33.75H9V31.5H6.75V29.25H4.5V33.75H0ZM4.5 27H9V24.75H11.25V20.25H4.5V27ZM18 33.75V22.5H20.25V20.25H22.5V18H29.25V20.25H31.5V22.5H33.75V33.75H29.25V29.25H22.5V33.75H18ZM22.5 27H29.25V22.5H27V20.25H24.75V22.5H22.5V27ZM36 33.75V18H40.5V24.75H42.75V22.5H45V20.25H47.25V18H51.75V20.25H49.5V22.5H47.25V24.75H45V27H47.25V29.25H49.5V31.5H51.75V33.75H45V31.5H42.75V29.25H40.5V33.75H36ZM54 33.75V18H58.5V24.75H65.25V18H69.75V33.75H65.25V27H58.5V33.75H54ZM72 33.75V22.5H74.25V20.25H76.5V18H83.25V20.25H85.5V22.5H87.75V33.75H83.25V29.25H76.5V33.75H72ZM76.5 27H83.25V22.5H81V20.25H78.75V22.5H76.5V27ZM96.75 33.75V20.25H92.25V18H105.75V20.25H101.25V33.75H96.75ZM110.25 33.75V31.5H108V20.25H110.25V18H121.5V20.25H123.75V31.5H121.5V33.75H110.25ZM112.5 31.5H119.25V20.25H112.5V31.5ZM132.75 33.75V31.5H130.5V29.25H128.25V27H126V18H130.5V24.75H132.75V27H135V24.75H137.25V18H141.75V27H139.5V29.25H137.25V31.5H135V33.75H132.75Z" fill="#1A1A1A"/>
</svg>
