<svg width="142" height="34" viewBox="0 0 142 34" fill="none" xmlns="http://www.w3.org/2000/svg">
<path d="M0 15.75V0H4.5V6.75H6.75V4.5H9V2.25H11.25V0H15.75V2.25H13.5V4.5H11.25V6.75H9V9H11.25V11.25H13.5V13.5H15.75V15.75H9V13.5H6.75V11.25H4.5V15.75H0ZM20.25 15.75V13.5H18V0H22.5V13.5H29.25V0H33.75V13.5H31.5V15.75H20.25ZM36 15.75V0H49.5V2.25H51.75V9H47.25V11.25H49.5V13.5H51.75V15.75H45V13.5H42.75V11.25H40.5V15.75H36ZM40.5 9H45V6.75H47.25V2.25H40.5V9ZM54 15.75V0H58.5V2.25H60.75V4.5H63V2.25H65.25V0H69.75V15.75H65.25V6.75H63V11.25H60.75V6.75H58.5V15.75H54ZM72 15.75V0H87.75V2.25H76.5V6.75H85.5V9H76.5V13.5H87.75V15.75H72ZM96.75 15.75V2.25H92.25V0H105.75V2.25H101.25V15.75H96.75ZM0 33.75V18H13.5V20.25H15.75V27H11.25V29.25H13.5V31.5H15.75V33.75H9V31.5H6.75V29.25H4.5V33.75H0ZM4.5 27H9V24.75H11.25V20.25H4.5V27ZM18 33.75V22.5H20.25V20.25H22.5V18H29.25V20.25H31.5V22.5H33.75V33.75H29.25V29.25H22.5V33.75H18ZM22.5 27H29.25V22.5H27V20.25H24.75V22.5H22.5V27ZM36 33.75V18H40.5V24.75H42.75V22.5H45V20.25H47.25V18H51.75V20.25H49.5V22.5H47.25V24.75H45V27H47.25V29.25H49.5V31.5H51.75V33.75H45V31.5H42.75V29.25H40.5V33.75H36ZM54 33.75V18H58.5V24.75H65.25V18H69.75V33.75H65.25V27H58.5V33.75H54ZM72 33.75V22.5H74.25V20.25H76.5V18H83.25V20.25H85.5V22.5H87.75V33.75H83.25V29.25H76.5V33.75H72ZM76.5 27H83.25V22.5H81V20.25H78.75V22.5H76.5V27ZM96.75 33.75V20.25H92.25V18H105.75V20.25H101.25V33.75H96.75ZM110.25 33.75V31.5H108V20.25H110.25V18H121.5V20.25H123.75V31.5H121.5V33.75H110.25ZM112.5 31.5H119.25V20.25H112.5V31.5ZM132.75 33.75V31.5H130.5V29.25H128.25V27H126V18H130.5V24.75H132.75V27H135V24.75H137.25V18H141.75V27H139.5V29.25H137.25V31.5H135V33.75H132.75Z" fill="white"/>
<path d="M0 15.75H-0.4V16.15H0V15.75ZM0 0V-0.4H-0.4V0H0ZM4.5 0H4.9V-0.4H4.5V0ZM4.5 6.75H4.1V7.15H4.5V6.75ZM6.75 6.75V7.15H7.15V6.75H6.75ZM6.75 4.5V4.1H6.35V4.5H6.75ZM9 4.5V4.9H9.4V4.5H9ZM9 2.25V1.85H8.6V2.25H9ZM11.25 2.25V2.65H11.65V2.25H11.25ZM11.25 0V-0.4H10.85V0H11.25ZM15.75 0H16.15V-0.4H15.75V0ZM15.75 2.25V2.65H16.15V2.25H15.75ZM13.5 2.25V1.85H13.1V2.25H13.5ZM13.5 4.5V4.9H13.9V4.5H13.5ZM11.25 4.5V4.1H10.85V4.5H11.25ZM11.25 6.75V7.15H11.65V6.75H11.25ZM9 6.75V6.35H8.6V6.75H9ZM9 9H8.6V9.4H9V9ZM11.25 9H11.65V8.6H11.25V9ZM11.25 11.25H10.85V11.65H11.25V11.25ZM13.5 11.25H13.9V10.85H13.5V11.25ZM13.5 13.5H13.1V13.9H13.5V13.5ZM15.75 13.5H16.15V13.1H15.75V13.5ZM15.75 15.75V16.15H16.15V15.75H15.75ZM9 15.75H8.6V16.15H9V15.75ZM9 13.5H9.4V13.1H9V13.5ZM6.75 13.5H6.35V13.9H6.75V13.5ZM6.75 11.25H7.15V10.85H6.75V11.25ZM4.5 11.25V10.85H4.1V11.25H4.5ZM4.5 15.75V16.15H4.9V15.75H4.5ZM0.4 15.75V0H-0.4V15.75H0.4ZM0 0.4H4.5V-0.4H0V0.4ZM4.1 0V6.75H4.9V0H4.1ZM4.5 7.15H6.75V6.35H4.5V7.15ZM7.15 6.75V4.5H6.35V6.75H7.15ZM6.75 4.9H9V4.1H6.75V4.9ZM9.4 4.5V2.25H8.6V4.5H9.4ZM9 2.65H11.25V1.85H9V2.65ZM11.65 2.25V0H10.85V2.25H11.65ZM11.25 0.4H15.75V-0.4H11.25V0.4ZM15.35 0V2.25H16.15V0H15.35ZM15.75 1.85H13.5V2.65H15.75V1.85ZM13.1 2.25V4.5H13.9V2.25H13.1ZM13.5 4.1H11.25V4.9H13.5V4.1ZM10.85 4.5V6.75H11.65V4.5H10.85ZM11.25 6.35H9V7.15H11.25V6.35ZM8.6 6.75V9H9.4V6.75H8.6ZM9 9.4H11.25V8.6H9V9.4ZM10.85 9V11.25H11.65V9H10.85ZM11.25 11.65H13.5V10.85H11.25V11.65ZM13.1 11.25V13.5H13.9V11.25H13.1ZM13.5 13.9H15.75V13.1H13.5V13.9ZM15.35 13.5V15.75H16.15V13.5H15.35ZM15.75 15.35H9V16.15H15.75V15.35ZM9.4 15.75V13.5H8.6V15.75H9.4ZM9 13.1H6.75V13.9H9V13.1ZM7.15 13.5V11.25H6.35V13.5H7.15ZM6.75 10.85H4.5V11.65H6.75V10.85ZM4.1 11.25V15.75H4.9V11.25H4.1ZM4.5 15.35H0V16.15H4.5V15.35ZM20.25 15.75H19.85V16.15H20.25V15.75ZM20.25 13.5H20.65V13.1H20.25V13.5ZM18 13.5H17.6V13.9H18V13.5ZM18 0V-0.4H17.6V0H18ZM22.5 0H22.9V-0.4H22.5V0ZM22.5 13.5H22.1V13.9H22.5V13.5ZM29.25 13.5V13.9H29.65V13.5H29.25ZM29.25 0V-0.4H28.85V0H29.25ZM33.75 0H34.15V-0.4H33.75V0ZM33.75 13.5V13.9H34.15V13.5H33.75ZM31.5 13.5V13.1H31.1V13.5H31.5ZM31.5 15.75V16.15H31.9V15.75H31.5ZM20.65 15.75V13.5H19.85V15.75H20.65ZM20.25 13.1H18V13.9H20.25V13.1ZM18.4 13.5V0H17.6V13.5H18.4ZM18 0.4H22.5V-0.4H18V0.4ZM22.1 0V13.5H22.9V0H22.1ZM22.5 13.9H29.25V13.1H22.5V13.9ZM29.65 13.5V0H28.85V13.5H29.65ZM29.25 0.4H33.75V-0.4H29.25V0.4ZM33.35 0V13.5H34.15V0H33.35ZM33.75 13.1H31.5V13.9H33.75V13.1ZM31.1 13.5V15.75H31.9V13.5H31.1ZM31.5 15.35H20.25V16.15H31.5V15.35ZM36 15.75H35.6V16.15H36V15.75ZM36 0V-0.4H35.6V0H36ZM49.5 0H49.9V-0.4H49.5V0ZM49.5 2.25H49.1V2.65H49.5V2.25ZM51.75 2.25H52.15V1.85H51.75V2.25ZM51.75 9V9.4H52.15V9H51.75ZM47.25 9V8.6H46.85V9H47.25ZM47.25 11.25H46.85V11.65H47.25V11.25ZM49.5 11.25H49.9V10.85H49.5V11.25ZM49.5 13.5H49.1V13.9H49.5V13.5ZM51.75 13.5H52.15V13.1H51.75V13.5ZM51.75 15.75V16.15H52.15V15.75H51.75ZM45 15.75H44.6V16.15H45V15.75ZM45 13.5H45.4V13.1H45V13.5ZM42.75 13.5H42.35V13.9H42.75V13.5ZM42.75 11.25H43.15V10.85H42.75V11.25ZM40.5 11.25V10.85H40.1V11.25H40.5ZM40.5 15.75V16.15H40.9V15.75H40.5ZM40.5 9H40.1V9.4H40.5V9ZM45 9V9.4H45.4V9H45ZM45 6.75V6.35H44.6V6.75H45ZM47.25 6.75V7.15H47.65V6.75H47.25ZM47.25 2.25H47.65V1.85H47.25V2.25ZM40.5 2.25V1.85H40.1V2.25H40.5ZM36.4 15.75V0H35.6V15.75H36.4ZM36 0.4H49.5V-0.4H36V0.4ZM49.1 0V2.25H49.9V0H49.1ZM49.5 2.65H51.75V1.85H49.5V2.65ZM51.35 2.25V9H52.15V2.25H51.35ZM51.75 8.6H47.25V9.4H51.75V8.6ZM46.85 9V11.25H47.65V9H46.85ZM47.25 11.65H49.5V10.85H47.25V11.65ZM49.1 11.25V13.5H49.9V11.25H49.1ZM49.5 13.9H51.75V13.1H49.5V13.9ZM51.35 13.5V15.75H52.15V13.5H51.35ZM51.75 15.35H45V16.15H51.75V15.35ZM45.4 15.75V13.5H44.6V15.75H45.4ZM45 13.1H42.75V13.9H45V13.1ZM43.15 13.5V11.25H42.35V13.5H43.15ZM42.75 10.85H40.5V11.65H42.75V10.85ZM40.1 11.25V15.75H40.9V11.25H40.1ZM40.5 15.35H36V16.15H40.5V15.35ZM40.5 9.4H45V8.6H40.5V9.4ZM45.4 9V6.75H44.6V9H45.4ZM45 7.15H47.25V6.35H45V7.15ZM47.65 6.75V2.25H46.85V6.75H47.65ZM47.25 1.85H40.5V2.65H47.25V1.85ZM40.1 2.25V9H40.9V2.25H40.1ZM54 15.75H53.6V16.15H54V15.75ZM54 0V-0.4H53.6V0H54ZM58.5 0H58.9V-0.4H58.5V0ZM58.5 2.25H58.1V2.65H58.5V2.25ZM60.75 2.25H61.15V1.85H60.75V2.25ZM60.75 4.5H60.35V4.9H60.75V4.5ZM63 4.5V4.9H63.4V4.5H63ZM63 2.25V1.85H62.6V2.25H63ZM65.25 2.25V2.65H65.65V2.25H65.25ZM65.25 0V-0.4H64.85V0H65.25ZM69.75 0H70.15V-0.4H69.75V0ZM69.75 15.75V16.15H70.15V15.75H69.75ZM65.25 15.75H64.85V16.15H65.25V15.75ZM65.25 6.75H65.65V6.35H65.25V6.75ZM63 6.75V6.35H62.6V6.75H63ZM63 11.25V11.65H63.4V11.25H63ZM60.75 11.25H60.35V11.65H60.75V11.25ZM60.75 6.75H61.15V6.35H60.75V6.75ZM58.5 6.75V6.35H58.1V6.75H58.5ZM58.5 15.75V16.15H58.9V15.75H58.5ZM54.4 15.75V0H53.6V15.75H54.4ZM54 0.4H58.5V-0.4H54V0.4ZM58.1 0V2.25H58.9V0H58.1ZM58.5 2.65H60.75V1.85H58.5V2.65ZM60.35 2.25V4.5H61.15V2.25H60.35ZM60.75 4.9H63V4.1H60.75V4.9ZM63.4 4.5V2.25H62.6V4.5H63.4ZM63 2.65H65.25V1.85H63V2.65ZM65.65 2.25V0H64.85V2.25H65.65ZM65.25 0.4H69.75V-0.4H65.25V0.4ZM69.35 0V15.75H70.15V0H69.35ZM69.75 15.35H65.25V16.15H69.75V15.35ZM65.65 15.75V6.75H64.85V15.75H65.65ZM65.25 6.35H63V7.15H65.25V6.35ZM62.6 6.75V11.25H63.4V6.75H62.6ZM63 10.85H60.75V11.65H63V10.85ZM61.15 11.25V6.75H60.35V11.25H61.15ZM60.75 6.35H58.5V7.15H60.75V6.35ZM58.1 6.75V15.75H58.9V6.75H58.1ZM58.5 15.35H54V16.15H58.5V15.35ZM72 15.75H71.6V16.15H72V15.75ZM72 0V-0.4H71.6V0H72ZM87.75 0H88.15V-0.4H87.75V0ZM87.75 2.25V2.65H88.15V2.25H87.75ZM76.5 2.25V1.85H76.1V2.25H76.5ZM76.5 6.75H76.1V7.15H76.5V6.75ZM85.5 6.75H85.9V6.35H85.5V6.75ZM85.5 9V9.4H85.9V9H85.5ZM76.5 9V8.6H76.1V9H76.5ZM76.5 13.5H76.1V13.9H76.5V13.5ZM87.75 13.5H88.15V13.1H87.75V13.5ZM87.75 15.75V16.15H88.15V15.75H87.75ZM72.4 15.75V0H71.6V15.75H72.4ZM72 0.4H87.75V-0.4H72V0.4ZM87.35 0V2.25H88.15V0H87.35ZM87.75 1.85H76.5V2.65H87.75V1.85ZM76.1 2.25V6.75H76.9V2.25H76.1ZM76.5 7.15H85.5V6.35H76.5V7.15ZM85.1 6.75V9H85.9V6.75H85.1ZM85.5 8.6H76.5V9.4H85.5V8.6ZM76.1 9V13.5H76.9V9H76.1ZM76.5 13.9H87.75V13.1H76.5V13.9ZM87.35 13.5V15.75H88.15V13.5H87.35ZM87.75 15.35H72V16.15H87.75V15.35ZM96.75 15.75H96.35V16.15H96.75V15.75ZM96.75 2.25H97.15V1.85H96.75V2.25ZM92.25 2.25H91.85V2.65H92.25V2.25ZM92.25 0V-0.4H91.85V0H92.25ZM105.75 0H106.15V-0.4H105.75V0ZM105.75 2.25V2.65H106.15V2.25H105.75ZM101.25 2.25V1.85H100.85V2.25H101.25ZM101.25 15.75V16.15H101.65V15.75H101.25ZM97.15 15.75V2.25H96.35V15.75H97.15ZM96.75 1.85H92.25V2.65H96.75V1.85ZM92.65 2.25V0H91.85V2.25H92.65ZM92.25 0.4H105.75V-0.4H92.25V0.4ZM105.35 0V2.25H106.15V0H105.35ZM105.75 1.85H101.25V2.65H105.75V1.85ZM100.85 2.25V15.75H101.65V2.25H100.85ZM101.25 15.35H96.75V16.15H101.25V15.35ZM0 33.75H-0.4V34.15H0V33.75ZM0 18V17.6H-0.4V18H0ZM13.5 18H13.9V17.6H13.5V18ZM13.5 20.25H13.1V20.65H13.5V20.25ZM15.75 20.25H16.15V19.85H15.75V20.25ZM15.75 27V27.4H16.15V27H15.75ZM11.25 27V26.6H10.85V27H11.25ZM11.25 29.25H10.85V29.65H11.25V29.25ZM13.5 29.25H13.9V28.85H13.5V29.25ZM13.5 31.5H13.1V31.9H13.5V31.5ZM15.75 31.5H16.15V31.1H15.75V31.5ZM15.75 33.75V34.15H16.15V33.75H15.75ZM9 33.75H8.6V34.15H9V33.75ZM9 31.5H9.4V31.1H9V31.5ZM6.75 31.5H6.35V31.9H6.75V31.5ZM6.75 29.25H7.15V28.85H6.75V29.25ZM4.5 29.25V28.85H4.1V29.25H4.5ZM4.5 33.75V34.15H4.9V33.75H4.5ZM4.5 27H4.1V27.4H4.5V27ZM9 27V27.4H9.4V27H9ZM9 24.75V24.35H8.6V24.75H9ZM11.25 24.75V25.15H11.65V24.75H11.25ZM11.25 20.25H11.65V19.85H11.25V20.25ZM4.5 20.25V19.85H4.1V20.25H4.5ZM0.4 33.75V18H-0.4V33.75H0.4ZM0 18.4H13.5V17.6H0V18.4ZM13.1 18V20.25H13.9V18H13.1ZM13.5 20.65H15.75V19.85H13.5V20.65ZM15.35 20.25V27H16.15V20.25H15.35ZM15.75 26.6H11.25V27.4H15.75V26.6ZM10.85 27V29.25H11.65V27H10.85ZM11.25 29.65H13.5V28.85H11.25V29.65ZM13.1 29.25V31.5H13.9V29.25H13.1ZM13.5 31.9H15.75V31.1H13.5V31.9ZM15.35 31.5V33.75H16.15V31.5H15.35ZM15.75 33.35H9V34.15H15.75V33.35ZM9.4 33.75V31.5H8.6V33.75H9.4ZM9 31.1H6.75V31.9H9V31.1ZM7.15 31.5V29.25H6.35V31.5H7.15ZM6.75 28.85H4.5V29.65H6.75V28.85ZM4.1 29.25V33.75H4.9V29.25H4.1ZM4.5 33.35H0V34.15H4.5V33.35ZM4.5 27.4H9V26.6H4.5V27.4ZM9.4 27V24.75H8.6V27H9.4ZM9 25.15H11.25V24.35H9V25.15ZM11.65 24.75V20.25H10.85V24.75H11.65ZM11.25 19.85H4.5V20.65H11.25V19.85ZM4.1 20.25V27H4.9V20.25H4.1ZM18 33.75H17.6V34.15H18V33.75ZM18 22.5V22.1H17.6V22.5H18ZM20.25 22.5V22.9H20.65V22.5H20.25ZM20.25 20.25V19.85H19.85V20.25H20.25ZM22.5 20.25V20.65H22.9V20.25H22.5ZM22.5 18V17.6H22.1V18H22.5ZM29.25 18H29.65V17.6H29.25V18ZM29.25 20.25H28.85V20.65H29.25V20.25ZM31.5 20.25H31.9V19.85H31.5V20.25ZM31.5 22.5H31.1V22.9H31.5V22.5ZM33.75 22.5H34.15V22.1H33.75V22.5ZM33.75 33.75V34.15H34.15V33.75H33.75ZM29.25 33.75H28.85V34.15H29.25V33.75ZM29.25 29.25H29.65V28.85H29.25V29.25ZM22.5 29.25V28.85H22.1V29.25H22.5ZM22.5 33.75V34.15H22.9V33.75H22.5ZM22.5 27H22.1V27.4H22.5V27ZM29.25 27V27.4H29.65V27H29.25ZM29.25 22.5H29.65V22.1H29.25V22.5ZM27 22.5H26.6V22.9H27V22.5ZM27 20.25H27.4V19.85H27V20.25ZM24.75 20.25V19.85H24.35V20.25H24.75ZM24.75 22.5V22.9H25.15V22.5H24.75ZM22.5 22.5V22.1H22.1V22.5H22.5ZM18.4 33.75V22.5H17.6V33.75H18.4ZM18 22.9H20.25V22.1H18V22.9ZM20.65 22.5V20.25H19.85V22.5H20.65ZM20.25 20.65H22.5V19.85H20.25V20.65ZM22.9 20.25V18H22.1V20.25H22.9ZM22.5 18.4H29.25V17.6H22.5V18.4ZM28.85 18V20.25H29.65V18H28.85ZM29.25 20.65H31.5V19.85H29.25V20.65ZM31.1 20.25V22.5H31.9V20.25H31.1ZM31.5 22.9H33.75V22.1H31.5V22.9ZM33.35 22.5V33.75H34.15V22.5H33.35ZM33.75 33.35H29.25V34.15H33.75V33.35ZM29.65 33.75V29.25H28.85V33.75H29.65ZM29.25 28.85H22.5V29.65H29.25V28.85ZM22.1 29.25V33.75H22.9V29.25H22.1ZM22.5 33.35H18V34.15H22.5V33.35ZM22.5 27.4H29.25V26.6H22.5V27.4ZM29.65 27V22.5H28.85V27H29.65ZM29.25 22.1H27V22.9H29.25V22.1ZM27.4 22.5V20.25H26.6V22.5H27.4ZM27 19.85H24.75V20.65H27V19.85ZM24.35 20.25V22.5H25.15V20.25H24.35ZM24.75 22.1H22.5V22.9H24.75V22.1ZM22.1 22.5V27H22.9V22.5H22.1ZM36 33.75H35.6V34.15H36V33.75ZM36 18V17.6H35.6V18H36ZM40.5 18H40.9V17.6H40.5V18ZM40.5 24.75H40.1V25.15H40.5V24.75ZM42.75 24.75V25.15H43.15V24.75H42.75ZM42.75 22.5V22.1H42.35V22.5H42.75ZM45 22.5V22.9H45.4V22.5H45ZM45 20.25V19.85H44.6V20.25H45ZM47.25 20.25V20.65H47.65V20.25H47.25ZM47.25 18V17.6H46.85V18H47.25ZM51.75 18H52.15V17.6H51.75V18ZM51.75 20.25V20.65H52.15V20.25H51.75ZM49.5 20.25V19.85H49.1V20.25H49.5ZM49.5 22.5V22.9H49.9V22.5H49.5ZM47.25 22.5V22.1H46.85V22.5H47.25ZM47.25 24.75V25.15H47.65V24.75H47.25ZM45 24.75V24.35H44.6V24.75H45ZM45 27H44.6V27.4H45V27ZM47.25 27H47.65V26.6H47.25V27ZM47.25 29.25H46.85V29.65H47.25V29.25ZM49.5 29.25H49.9V28.85H49.5V29.25ZM49.5 31.5H49.1V31.9H49.5V31.5ZM51.75 31.5H52.15V31.1H51.75V31.5ZM51.75 33.75V34.15H52.15V33.75H51.75ZM45 33.75H44.6V34.15H45V33.75ZM45 31.5H45.4V31.1H45V31.5ZM42.75 31.5H42.35V31.9H42.75V31.5ZM42.75 29.25H43.15V28.85H42.75V29.25ZM40.5 29.25V28.85H40.1V29.25H40.5ZM40.5 33.75V34.15H40.9V33.75H40.5ZM36.4 33.75V18H35.6V33.75H36.4ZM36 18.4H40.5V17.6H36V18.4ZM40.1 18V24.75H40.9V18H40.1ZM40.5 25.15H42.75V24.35H40.5V25.15ZM43.15 24.75V22.5H42.35V24.75H43.15ZM42.75 22.9H45V22.1H42.75V22.9ZM45.4 22.5V20.25H44.6V22.5H45.4ZM45 20.65H47.25V19.85H45V20.65ZM47.65 20.25V18H46.85V20.25H47.65ZM47.25 18.4H51.75V17.6H47.25V18.4ZM51.35 18V20.25H52.15V18H51.35ZM51.75 19.85H49.5V20.65H51.75V19.85ZM49.1 20.25V22.5H49.9V20.25H49.1ZM49.5 22.1H47.25V22.9H49.5V22.1ZM46.85 22.5V24.75H47.65V22.5H46.85ZM47.25 24.35H45V25.15H47.25V24.35ZM44.6 24.75V27H45.4V24.75H44.6ZM45 27.4H47.25V26.6H45V27.4ZM46.85 27V29.25H47.65V27H46.85ZM47.25 29.65H49.5V28.85H47.25V29.65ZM49.1 29.25V31.5H49.9V29.25H49.1ZM49.5 31.9H51.75V31.1H49.5V31.9ZM51.35 31.5V33.75H52.15V31.5H51.35ZM51.75 33.35H45V34.15H51.75V33.35ZM45.4 33.75V31.5H44.6V33.75H45.4ZM45 31.1H42.75V31.9H45V31.1ZM43.15 31.5V29.25H42.35V31.5H43.15ZM42.75 28.85H40.5V29.65H42.75V28.85ZM40.1 29.25V33.75H40.9V29.25H40.1ZM40.5 33.35H36V34.15H40.5V33.35ZM54 33.75H53.6V34.15H54V33.75ZM54 18V17.6H53.6V18H54ZM58.5 18H58.9V17.6H58.5V18ZM58.5 24.75H58.1V25.15H58.5V24.75ZM65.25 24.75V25.15H65.65V24.75H65.25ZM65.25 18V17.6H64.85V18H65.25ZM69.75 18H70.15V17.6H69.75V18ZM69.75 33.75V34.15H70.15V33.75H69.75ZM65.25 33.75H64.85V34.15H65.25V33.75ZM65.25 27H65.65V26.6H65.25V27ZM58.5 27V26.6H58.1V27H58.5ZM58.5 33.75V34.15H58.9V33.75H58.5ZM54.4 33.75V18H53.6V33.75H54.4ZM54 18.4H58.5V17.6H54V18.4ZM58.1 18V24.75H58.9V18H58.1ZM58.5 25.15H65.25V24.35H58.5V25.15ZM65.65 24.75V18H64.85V24.75H65.65ZM65.25 18.4H69.75V17.6H65.25V18.4ZM69.35 18V33.75H70.15V18H69.35ZM69.75 33.35H65.25V34.15H69.75V33.35ZM65.65 33.75V27H64.85V33.75H65.65ZM65.25 26.6H58.5V27.4H65.25V26.6ZM58.1 27V33.75H58.9V27H58.1ZM58.5 33.35H54V34.15H58.5V33.35ZM72 33.75H71.6V34.15H72V33.75ZM72 22.5V22.1H71.6V22.5H72ZM74.25 22.5V22.9H74.65V22.5H74.25ZM74.25 20.25V19.85H73.85V20.25H74.25ZM76.5 20.25V20.65H76.9V20.25H76.5ZM76.5 18V17.6H76.1V18H76.5ZM83.25 18H83.65V17.6H83.25V18ZM83.25 20.25H82.85V20.65H83.25V20.25ZM85.5 20.25H85.9V19.85H85.5V20.25ZM85.5 22.5H85.1V22.9H85.5V22.5ZM87.75 22.5H88.15V22.1H87.75V22.5ZM87.75 33.75V34.15H88.15V33.75H87.75ZM83.25 33.75H82.85V34.15H83.25V33.75ZM83.25 29.25H83.65V28.85H83.25V29.25ZM76.5 29.25V28.85H76.1V29.25H76.5ZM76.5 33.75V34.15H76.9V33.75H76.5ZM76.5 27H76.1V27.4H76.5V27ZM83.25 27V27.4H83.65V27H83.25ZM83.25 22.5H83.65V22.1H83.25V22.5ZM81 22.5H80.6V22.9H81V22.5ZM81 20.25H81.4V19.85H81V20.25ZM78.75 20.25V19.85H78.35V20.25H78.75ZM78.75 22.5V22.9H79.15V22.5H78.75ZM76.5 22.5V22.1H76.1V22.5H76.5ZM72.4 33.75V22.5H71.6V33.75H72.4ZM72 22.9H74.25V22.1H72V22.9ZM74.65 22.5V20.25H73.85V22.5H74.65ZM74.25 20.65H76.5V19.85H74.25V20.65ZM76.9 20.25V18H76.1V20.25H76.9ZM76.5 18.4H83.25V17.6H76.5V18.4ZM82.85 18V20.25H83.65V18H82.85ZM83.25 20.65H85.5V19.85H83.25V20.65ZM85.1 20.25V22.5H85.9V20.25H85.1ZM85.5 22.9H87.75V22.1H85.5V22.9ZM87.35 22.5V33.75H88.15V22.5H87.35ZM87.75 33.35H83.25V34.15H87.75V33.35ZM83.65 33.75V29.25H82.85V33.75H83.65ZM83.25 28.85H76.5V29.65H83.25V28.85ZM76.1 29.25V33.75H76.9V29.25H76.1ZM76.5 33.35H72V34.15H76.5V33.35ZM76.5 27.4H83.25V26.6H76.5V27.4ZM83.65 27V22.5H82.85V27H83.65ZM83.25 22.1H81V22.9H83.25V22.1ZM81.4 22.5V20.25H80.6V22.5H81.4ZM81 19.85H78.75V20.65H81V19.85ZM78.35 20.25V22.5H79.15V20.25H78.35ZM78.75 22.1H76.5V22.9H78.75V22.1ZM76.1 22.5V27H76.9V22.5H76.1ZM96.75 33.75H96.35V34.15H96.75V33.75ZM96.75 20.25H97.15V19.85H96.75V20.25ZM92.25 20.25H91.85V20.65H92.25V20.25ZM92.25 18V17.6H91.85V18H92.25ZM105.75 18H106.15V17.6H105.75V18ZM105.75 20.25V20.65H106.15V20.25H105.75ZM101.25 20.25V19.85H100.85V20.25H101.25ZM101.25 33.75V34.15H101.65V33.75H101.25ZM97.15 33.75V20.25H96.35V33.75H97.15ZM96.75 19.85H92.25V20.65H96.75V19.85ZM92.65 20.25V18H91.85V20.25H92.65ZM92.25 18.4H105.75V17.6H92.25V18.4ZM105.35 18V20.25H106.15V18H105.35ZM105.75 19.85H101.25V20.65H105.75V19.85ZM100.85 20.25V33.75H101.65V20.25H100.85ZM101.25 33.35H96.75V34.15H101.25V33.35ZM110.25 33.75H109.85V34.15H110.25V33.75ZM110.25 31.5H110.65V31.1H110.25V31.5ZM108 31.5H107.6V31.9H108V31.5ZM108 20.25V19.85H107.6V20.25H108ZM110.25 20.25V20.65H110.65V20.25H110.25ZM110.25 18V17.6H109.85V18H110.25ZM121.5 18H121.9V17.6H121.5V18ZM121.5 20.25H121.1V20.65H121.5V20.25ZM123.75 20.25H124.15V19.85H123.75V20.25ZM123.75 31.5V31.9H124.15V31.5H123.75ZM121.5 31.5V31.1H121.1V31.5H121.5ZM121.5 33.75V34.15H121.9V33.75H121.5ZM112.5 31.5H112.1V31.9H112.5V31.5ZM119.25 31.5V31.9H119.65V31.5H119.25ZM119.25 20.25H119.65V19.85H119.25V20.25ZM112.5 20.25V19.85H112.1V20.25H112.5ZM110.65 33.75V31.5H109.85V33.75H110.65ZM110.25 31.1H108V31.9H110.25V31.1ZM108.4 31.5V20.25H107.6V31.5H108.4ZM108 20.65H110.25V19.85H108V20.65ZM110.65 20.25V18H109.85V20.25H110.65ZM110.25 18.4H121.5V17.6H110.25V18.4ZM121.1 18V20.25H121.9V18H121.1ZM121.5 20.65H123.75V19.85H121.5V20.65ZM123.35 20.25V31.5H124.15V20.25H123.35ZM123.75 31.1H121.5V31.9H123.75V31.1ZM121.1 31.5V33.75H121.9V31.5H121.1ZM121.5 33.35H110.25V34.15H121.5V33.35ZM112.5 31.9H119.25V31.1H112.5V31.9ZM119.65 31.5V20.25H118.85V31.5H119.65ZM119.25 19.85H112.5V20.65H119.25V19.85ZM112.1 20.25V31.5H112.9V20.25H112.1ZM132.75 33.75H132.35V34.15H132.75V33.75ZM132.75 31.5H133.15V31.1H132.75V31.5ZM130.5 31.5H130.1V31.9H130.5V31.5ZM130.5 29.25H130.9V28.85H130.5V29.25ZM128.25 29.25H127.85V29.65H128.25V29.25ZM128.25 27H128.65V26.6H128.25V27ZM126 27H125.6V27.4H126V27ZM126 18V17.6H125.6V18H126ZM130.5 18H130.9V17.6H130.5V18ZM130.5 24.75H130.1V25.15H130.5V24.75ZM132.75 24.75H133.15V24.35H132.75V24.75ZM132.75 27H132.35V27.4H132.75V27ZM135 27V27.4H135.4V27H135ZM135 24.75V24.35H134.6V24.75H135ZM137.25 24.75V25.15H137.65V24.75H137.25ZM137.25 18V17.6H136.85V18H137.25ZM141.75 18H142.15V17.6H141.75V18ZM141.75 27V27.4H142.15V27H141.75ZM139.5 27V26.6H139.1V27H139.5ZM139.5 29.25V29.65H139.9V29.25H139.5ZM137.25 29.25V28.85H136.85V29.25H137.25ZM137.25 31.5V31.9H137.65V31.5H137.25ZM135 31.5V31.1H134.6V31.5H135ZM135 33.75V34.15H135.4V33.75H135ZM133.15 33.75V31.5H132.35V33.75H133.15ZM132.75 31.1H130.5V31.9H132.75V31.1ZM130.9 31.5V29.25H130.1V31.5H130.9ZM130.5 28.85H128.25V29.65H130.5V28.85ZM128.65 29.25V27H127.85V29.25H128.65ZM128.25 26.6H126V27.4H128.25V26.6ZM126.4 27V18H125.6V27H126.4ZM126 18.4H130.5V17.6H126V18.4ZM130.1 18V24.75H130.9V18H130.1ZM130.5 25.15H132.75V24.35H130.5V25.15ZM132.35 24.75V27H133.15V24.75H132.35ZM132.75 27.4H135V26.6H132.75V27.4ZM135.4 27V24.75H134.6V27H135.4ZM135 25.15H137.25V24.35H135V25.15ZM137.65 24.75V18H136.85V24.75H137.65ZM137.25 18.4H141.75V17.6H137.25V18.4ZM141.35 18V27H142.15V18H141.35ZM141.75 26.6H139.5V27.4H141.75V26.6ZM139.1 27V29.25H139.9V27H139.1ZM139.5 28.85H137.25V29.65H139.5V28.85ZM136.85 29.25V31.5H137.65V29.25H136.85ZM137.25 31.1H135V31.9H137.25V31.1ZM134.6 31.5V33.75H135.4V31.5H134.6ZM135 33.35H132.75V34.15H135V33.35Z" fill="#1A1A1A"/>
</svg>
